<?xml version="1.0" encoding="UTF-8" ?>
<svg xmlns="http://www.w3.org/2000/svg" width="100" height="100">
  <path
    d="M 2.882513,87.529834 0,82.06717 21.871706,44.552729 43.743412,7.0382895 49.995954,7.0392651 56.248491,7.0402407 78.124245,44.550963 100,82.061686 l -3.118134,5.456357 -3.118139,5.456359 -43.999352,0.0091 -43.9993495,0.0091 z M 68.185694,70.188479 C 67.733829,69.339992 63.407949,61.853576 58.57263,53.552001 l -8.791482,-15.093773 -0.657139,1.262823 c -0.361421,0.694552 -3.201306,5.632176 -6.310844,10.972499 -3.109541,5.340323 -7.136422,12.258469 -8.948616,15.373657 l -3.294903,5.663978 h 19.218817 19.218815 z"
    fill="#808080"
  />
  <path
    d="M 6.7202046,91.864983 C 7.1299315,91.240721 15.551525,76.944316 25.434857,60.095199 35.318186,43.246078 43.612055,29.391382 43.865675,29.306986 l 0.461121,-0.153447 2.603005,4.438534 c 3.272745,5.580558 4.081986,2.998611 -6.809128,21.725133 l -9.411711,16.182796 12.389616,0.122962 c 6.814288,0.06763 18.13445,0.06763 25.155913,0 L 81.020787,71.500002 62.674361,39.838011 C 52.583824,22.423915 44.226222,7.9114142 44.101912,7.5880092 L 43.875884,7 50.06219,7.02012 56.248491,7.04024 78.124245,44.550963 100,82.061686 l -3.118134,5.456357 -3.118139,5.456359 -43.894236,0.0128 -43.8942438,0.01279 z"
    fill="#4d4d4d"
  />
  <path
    d="M 6.7202046,91.864983 C 7.1299315,91.240721 15.551525,76.944316 25.434857,60.095199 35.318186,43.246078 43.612055,29.391382 43.865675,29.306986 l 0.461121,-0.153447 2.63563,4.494158 2.63562,4.49416 -0.213134,0.813629 C 49.267694,39.402982 43.729935,49.119015 37.078789,60.546672 30.427644,71.974325 24.985795,81.453278 24.985795,81.611009 v 0.286783 l 37.490307,0.11831 37.490301,0.118309 -3.101338,5.419244 -3.101338,5.41924 -43.894236,0.01354 L 5.9752472,93 Z"
    fill="#1a1a1a"
  />
</svg>
